<svg width="307" height="80" viewBox="0 0 307 80" fill="none" xmlns="http://www.w3.org/2000/svg">
<path d="M151.621 67.1194C150.404 66.9442 149.187 66.506 147.97 65.8927C146.666 65.2793 145.797 64.3155 145.188 62.9135C144.579 61.5115 144.319 59.6714 144.319 57.3056V46.9661C144.319 45.126 144.492 43.4611 144.927 42.0592C145.362 40.6572 145.883 39.6057 146.579 38.8171C147.188 38.1161 148.057 37.5904 149.187 37.1523C150.317 36.8018 151.535 36.5389 152.839 36.3637C154.23 36.276 155.708 36.276 157.186 36.276C159.185 36.276 160.663 36.3637 161.706 36.4513C162.75 36.5389 163.793 36.8018 165.01 37.0647C166.227 37.4151 167.097 38.0285 167.792 38.7295C168.488 39.4305 169.009 40.5696 169.444 41.9715C169.879 43.3735 170.053 45.0384 170.053 46.9661V57.3056C170.053 60.8105 169.27 63.3516 167.792 64.9288C167.184 65.6298 166.314 66.0679 165.097 66.506C163.967 66.8565 162.75 67.1194 161.533 67.207C160.055 67.2947 158.577 67.2947 157.186 67.2947C154.664 67.3823 152.839 67.2946 151.621 67.1194ZM160.663 63.6145C161.359 63.5269 162.141 63.264 162.837 62.9135C163.532 62.563 164.054 62.0372 164.315 61.2486C164.575 60.46 164.749 59.4086 164.749 58.0942V46.0898C164.749 44.2497 164.575 42.9354 164.141 42.0592C163.706 41.1829 163.01 40.6572 161.967 40.3943C160.924 40.1315 159.359 39.9562 157.186 39.9562C155.012 39.9562 153.447 40.1315 152.404 40.3943C151.361 40.6572 150.665 41.1829 150.23 42.0592C149.796 42.9354 149.622 44.2497 149.622 46.0898V58.1818C149.622 59.4962 149.796 60.6353 150.057 61.3363C150.317 62.1249 150.839 62.6506 151.535 63.0011C152.23 63.3516 152.926 63.6145 153.708 63.7021C154.404 63.7897 155.621 63.7897 157.272 63.7897C158.75 63.7897 159.968 63.7021 160.663 63.6145ZM157.272 24.885H164.141L159.446 32.6835H155.186L157.272 24.885Z" fill="#003EB6"/>
<path d="M177.529 49.0698C177.529 45.4773 177.877 42.761 178.572 41.0085C179.268 39.2561 180.485 38.0293 182.224 37.3283C183.963 36.6274 186.745 36.2769 190.396 36.2769C193.874 36.2769 196.569 36.6274 198.308 37.2407C200.133 37.8541 201.35 38.9932 202.133 40.658C202.915 42.3229 203.263 44.7763 203.263 48.0184V55.9921C203.263 59.2341 202.915 61.6876 202.133 63.2648C201.437 64.842 200.133 65.8935 198.395 66.5069C196.569 67.1202 193.961 67.3831 190.396 67.3831C188.57 67.3831 186.919 67.2079 185.441 66.7697C183.963 66.3316 183.093 65.7183 182.746 64.9297V79.6503H177.529V49.0698ZM195.004 63.44C196.047 63.1772 196.743 62.7391 197.264 61.9505C197.786 61.1619 197.96 60.0228 197.96 58.4455V46.704C197.96 44.6011 197.786 43.1115 197.438 42.2352C197.09 41.359 196.395 40.7456 195.352 40.3952C194.308 40.0447 192.57 39.957 190.048 39.957C187.875 39.957 186.31 40.1323 185.354 40.4828C184.397 40.8333 183.702 41.4466 183.354 42.4105C183.006 43.3743 182.833 44.7763 182.833 46.7916V57.8322C182.833 59.5846 183.006 60.8114 183.354 61.6C183.702 62.3886 184.397 62.9143 185.528 63.2648C186.571 63.6153 188.31 63.7029 190.57 63.7029C192.57 63.7906 194.048 63.6153 195.004 63.44Z" fill="#003EB6"/>
<path d="M224.911 67.3828C221.173 67.3828 218.217 67.0323 216.13 66.4189C214.044 65.8056 212.566 64.7541 211.696 63.1768C210.74 61.6873 210.305 59.4967 210.305 56.6927V47.5799C210.305 44.5131 210.74 42.2349 211.696 40.5701C212.653 38.9052 214.131 37.8537 216.217 37.2404C218.304 36.627 221.173 36.2765 224.911 36.2765V27.6895H230.127V36.2765C233.779 36.2765 236.735 36.627 238.821 37.2404C240.908 37.8537 242.386 38.9929 243.342 40.5701C244.298 42.2349 244.733 44.5131 244.733 47.5799V56.6927C244.733 59.4967 244.298 61.6873 243.342 63.1768C242.386 64.6664 240.908 65.8056 238.908 66.4189C236.822 67.0323 233.953 67.3828 230.127 67.3828V79.5624H224.911V67.3828ZM224.911 40.0443C222.216 40.0443 220.303 40.2196 218.999 40.5701C217.695 40.9206 216.826 41.6215 216.304 42.4978C215.782 43.4616 215.608 44.8636 215.608 46.7037V57.569C215.608 59.2338 215.869 60.5482 216.391 61.4244C216.913 62.3006 217.782 62.914 219.086 63.2645C220.39 63.615 222.303 63.7902 224.911 63.7902V40.0443ZM235.952 63.2645C237.256 62.914 238.126 62.3006 238.647 61.4244C239.169 60.5482 239.43 59.2338 239.43 57.569V46.7037C239.43 44.776 239.169 43.374 238.734 42.4978C238.213 41.5339 237.343 40.9206 236.039 40.5701C234.735 40.2196 232.735 40.0443 230.127 40.0443V63.7902C232.735 63.7902 234.648 63.615 235.952 63.2645Z" fill="#003EB6"/>
<path d="M259.078 67.1202C257.861 66.945 256.644 66.5069 255.427 65.8935C254.122 65.2802 253.253 64.3163 252.644 62.9143C252.036 61.5124 251.775 59.6723 251.775 57.3064V46.9669C251.775 45.1268 251.949 43.462 252.384 42.06C252.818 40.658 253.34 39.6066 254.035 38.8179C254.644 38.117 255.513 37.5912 256.644 37.1531C257.774 36.715 258.991 36.5397 260.295 36.3645C261.686 36.2769 263.164 36.2769 264.642 36.2769C266.642 36.2769 268.12 36.3645 269.163 36.4521C270.206 36.5397 271.249 36.8026 272.467 37.0655C273.684 37.416 274.553 38.0293 275.249 38.7303C275.944 39.4313 276.466 40.5704 276.9 41.9724C277.335 43.3743 277.509 45.0392 277.509 46.9669V57.3064C277.509 60.8114 276.727 63.3524 275.249 64.9297C274.64 65.6306 273.771 66.0687 272.553 66.5069C271.423 66.8574 270.206 67.1202 268.989 67.2079C267.511 67.2955 266.033 67.2955 264.642 67.2955C262.208 67.3831 260.382 67.2955 259.078 67.1202ZM268.207 63.6153C268.902 63.5277 269.684 63.2648 270.38 62.9143C271.076 62.5638 271.597 62.0381 271.858 61.2495C272.119 60.4609 272.293 59.4094 272.293 58.0951V46.0907C272.293 44.2506 272.119 42.9362 271.684 42.06C271.249 41.1838 270.554 40.658 269.511 40.3952C268.467 40.1323 266.902 39.957 264.729 39.957C262.555 39.957 260.991 40.1323 259.947 40.3952C258.904 40.658 258.209 41.1838 257.774 42.06C257.339 42.9362 257.165 44.2506 257.165 46.0907V58.1827C257.165 59.497 257.339 60.6361 257.6 61.3371C257.861 62.1257 258.382 62.6514 259.078 63.0019C259.773 63.3524 260.469 63.6153 261.251 63.7029C261.947 63.7906 263.164 63.7906 264.816 63.7906C266.294 63.7906 267.424 63.7029 268.207 63.6153Z" fill="#003EB6"/>
<path d="M301.243 77.9855C301.852 75.9702 302.113 74.3053 302.113 72.991C302.113 71.8519 301.852 71.0633 301.33 70.5375C300.809 70.0118 300.026 69.7489 298.809 69.7489H296.722C293.332 69.7489 290.463 69.1356 288.116 67.9088C285.768 66.6821 284.551 64.2287 284.464 60.5485V46.6164C284.464 43.7248 284.899 41.5343 285.855 39.957C286.725 38.4674 288.116 37.5036 289.854 36.9779C291.68 36.4521 294.114 36.2769 297.331 36.2769C300.026 36.2769 302.634 36.6274 305.329 37.2407V41.2714C302.287 40.4828 299.418 40.0447 296.722 40.0447C294.723 40.0447 293.245 40.2199 292.289 40.4828C291.332 40.8333 290.724 41.359 290.289 42.1476C289.941 42.9362 289.767 44.163 289.767 45.8278V59.8475C289.767 62.1257 290.463 63.7029 291.767 64.4915C293.071 65.2801 295.158 65.7183 297.766 65.7183H298.896C301.591 65.7183 303.504 66.1564 304.634 66.945C305.764 67.7336 306.286 69.3108 306.286 71.589C306.286 72.5529 306.112 73.692 305.851 75.0063C305.59 76.3207 305.242 77.2845 304.895 77.9855H301.243Z" fill="#003EB6"/>
<path d="M95.8066 26.3745H104.24L116.237 59.5837L116.411 59.6713L127.8 26.3745H135.885V66.3307H130.93V32.5081H130.669L118.585 66.3307H113.542L101.11 32.5081H100.849V66.3307H95.8066V26.3745Z" fill="#003EB6"/>
<path d="M57.0319 51.1719L64.5956 35.2245L75.2021 57.5685C77.8103 52.2234 79.2883 46.2651 79.2883 39.9562C79.2883 17.8751 61.5527 0 39.6441 0C17.7355 0 0 17.8751 0 39.9562C0 45.9146 1.30408 51.6101 3.65143 56.7799L14.7796 33.2968H29.907L12.78 69.3976C19.8221 75.9693 29.2984 80 39.6441 80C49.7291 80 58.9446 76.2322 65.8997 69.9233L57.0319 51.1719ZM23.3866 51.1719L30.9502 35.2245L38.2531 50.7338L30.7764 66.7689L23.3866 51.1719ZM31.7327 68.7842L48.5119 33.2092H63.6393L46.8601 68.7842H31.7327Z" fill="#003EB6"/>
<path d="M95.8066 17.5257V6.66046H100.675V7.88718H97.2846V11.2169H100.414V12.356H97.2846V16.299H100.936V17.5257H95.8066Z" fill="#003EB6"/>
<path d="M116.063 6.66046C115.803 7.01095 115.542 7.36144 115.281 7.79955C115.02 8.23767 114.672 8.67578 114.412 9.1139C114.151 9.55202 113.803 9.99013 113.542 10.4282C113.194 10.8664 112.934 11.3045 112.673 11.655C113.021 12.0055 113.281 12.356 113.716 12.8817C114.151 13.4075 114.412 13.8456 114.759 14.3713C115.107 14.897 115.455 15.4228 115.716 15.9485C116.063 16.4743 116.237 17 116.498 17.4381H114.933C114.759 17 114.499 16.4743 114.151 15.9485C113.89 15.4228 113.542 14.9847 113.281 14.4589C112.934 14.0208 112.673 13.5827 112.325 13.1446C111.977 12.7065 111.716 12.4436 111.369 12.1807V17.4381H109.978V6.66046H111.369V11.4797C111.63 11.1292 111.89 10.7788 112.238 10.3406C112.499 9.90253 112.847 9.46441 113.107 9.0263C113.368 8.58818 113.716 8.15005 113.977 7.79955C114.238 7.36144 114.412 7.01096 114.672 6.74809H116.063V6.66046Z" fill="#003EB6"/>
<path d="M124.149 17.5257C124.409 16.3866 124.67 15.4228 124.844 14.4589C125.105 13.4951 125.279 12.6188 125.54 11.7426C125.8 10.8664 126.061 9.99014 126.322 9.20153C126.583 8.41292 126.844 7.53669 127.191 6.66046H128.582C128.843 7.53669 129.104 8.3253 129.365 9.20153C129.626 9.99014 129.887 10.8664 130.06 11.7426C130.321 12.6188 130.495 13.4951 130.756 14.4589C131.017 15.4228 131.191 16.4743 131.451 17.5257H124.149ZM127.8 8.41293C127.713 8.76342 127.539 9.20153 127.365 9.72727C127.191 10.253 127.018 10.8664 126.844 11.4797C126.67 12.1807 126.496 12.8817 126.235 13.6703C126.061 14.4589 125.8 15.3352 125.627 16.2114H129.8C129.626 15.3352 129.365 14.4589 129.191 13.6703C129.017 12.8817 128.843 12.0931 128.582 11.4797C128.409 10.7788 128.235 10.1654 128.061 9.72727C128.061 9.20153 127.887 8.76342 127.8 8.41293Z" fill="#003EB6"/>
<path d="M147.101 12.0916C147.101 12.9678 147.014 13.6688 146.84 14.3698C146.666 15.0708 146.492 15.6841 146.144 16.1223C145.797 16.648 145.449 16.9985 144.927 17.2614C144.405 17.5242 143.884 17.6995 143.188 17.6995C142.493 17.6995 141.971 17.5242 141.45 17.2614C140.928 16.9985 140.58 16.648 140.232 16.1223C139.885 15.5965 139.711 15.0708 139.537 14.3698C139.363 13.6688 139.276 12.8802 139.276 12.0916C139.276 11.2154 139.363 10.5144 139.537 9.8134C139.711 9.11242 139.972 8.49905 140.232 8.06094C140.58 7.5352 140.928 7.18469 141.45 6.92182C141.971 6.65895 142.493 6.4837 143.188 6.4837C143.884 6.4837 144.405 6.65895 144.927 6.92182C145.449 7.18469 145.797 7.62282 146.144 8.06094C146.492 8.58668 146.666 9.11242 146.84 9.8134C147.014 10.5144 147.101 11.303 147.101 12.0916ZM145.623 12.0916C145.623 11.4782 145.623 10.8649 145.536 10.2515C145.449 9.72578 145.275 9.20003 145.101 8.84954C144.927 8.49905 144.666 8.14856 144.405 7.97331C144.145 7.71044 143.71 7.62282 143.362 7.62282C143.014 7.62282 142.58 7.71044 142.319 7.97331C142.058 8.23618 141.797 8.49905 141.623 8.84954C141.45 9.20003 141.276 9.72578 141.189 10.2515C141.102 10.7773 141.015 11.3906 141.015 12.0916C141.015 12.7926 141.102 13.3183 141.189 13.9317C141.276 14.4574 141.45 14.8955 141.623 15.3337C141.797 15.6841 142.058 16.0346 142.319 16.2099C142.58 16.3851 143.014 16.5604 143.362 16.5604C143.71 16.5604 144.145 16.4728 144.405 16.2099C144.666 16.0346 144.927 15.6841 145.101 15.3337C145.275 14.9832 145.449 14.4574 145.536 13.9317C145.536 13.4059 145.623 12.7926 145.623 12.0916Z" fill="#003EB6"/>
<path d="M157.099 7.88718C157.446 8.58817 157.881 9.28915 158.229 9.99013C158.663 10.6911 159.011 11.3045 159.533 12.0055C159.098 12.7065 158.576 13.4075 158.229 14.1961C157.794 14.897 157.446 15.6857 157.099 16.3866H161.272V17.6134H155.534V16.6495C155.881 15.8609 156.316 15.0723 156.751 14.2837C157.185 13.4951 157.62 12.7065 158.142 12.0055C157.707 11.3045 157.272 10.6035 156.838 9.8149C156.403 9.02629 156.055 8.3253 155.621 7.53669V6.66046H161.185V7.88718H157.099Z" fill="#003EB6"/>
<path d="M169.879 17.5257V6.66046H174.747V7.88718H171.27V11.2169H174.399V12.356H171.27V16.299H174.921V17.5257H169.879Z" fill="#003EB6"/>
<path d="M183.963 6.66046H185.354V17.5257H183.963V6.66046Z" fill="#003EB6"/>
<path d="M195.786 7.88718C196.134 8.58817 196.569 9.28915 196.917 9.99013C197.351 10.6911 197.699 11.3045 198.221 12.0055C197.786 12.7065 197.264 13.4075 196.917 14.1961C196.482 14.897 196.134 15.6857 195.786 16.3866H199.959V17.6134H194.221V16.6495C194.569 15.8609 195.004 15.0723 195.439 14.2837C195.873 13.4951 196.308 12.7065 196.83 12.0055C196.395 11.3045 195.96 10.6035 195.525 9.8149C195.091 9.02629 194.743 8.3253 194.308 7.53669V6.66046H199.872V7.88718H195.786Z" fill="#003EB6"/>
</svg>
